  0
SECTION
  2
HEADER
  9
$ACADVER
  1
AC1009
  9
$EXTMIN
 10
0.0
 20
0.0
 30
0.0
  9
$EXTMAX
 10
1000.0
 20
1000.0
 30
0.0
  9
$FILLMODE
 70
 0
  9
$SPLFRAME
 70
 1
  0
ENDSEC
  0
SECTION
  2
TABLES
  0
TABLE
  2
LAYER
 70
1
  0
LAYER
  2
0
 70
     0
 62
     7
  6
CONTINUOUS
  0
ENDTAB
  0
ENDSEC
  0
SECTION
  2
ENTITIES
  0
LINE
  8
0
 62
     0
 10
77.2707
 20
80.4362
 30
0.0
 11
77.5201
 21
80.4277
 31
0.0
  0
LINE
  8
0
 62
     0
 10
77.5201
 20
80.4277
 30
0.0
 11
77.7667
 21
80.3973
 31
0.0
  0
LINE
  8
0
 62
     0
 10
77.7667
 20
80.3973
 30
0.0
 11
78.0122
 21
80.3494
 31
0.0
  0
LINE
  8
0
 62
     0
 10
78.0122
 20
80.3494
 30
0.0
 11
78.2518
 21
80.2816
 31
0.0
  0
LINE
  8
0
 62
     0
 10
78.2518
 20
80.2816
 30
0.0
 11
78.486
 21
80.1949
 31
0.0
  0
LINE
  8
0
 62
     0
 10
78.486
 20
80.1949
 30
0.0
 11
78.7121
 21
80.0901
 31
0.0
  0
LINE
  8
0
 62
     0
 10
78.7121
 20
80.0901
 30
0.0
 11
78.9284
 21
79.9691
 31
0.0
  0
LINE
  8
0
 62
     0
 10
78.9284
 20
79.9691
 30
0.0
 11
79.1365
 21
79.8297
 31
0.0
  0
LINE
  8
0
 62
     0
 10
79.1365
 20
79.8297
 30
0.0
 11
79.3323
 21
79.6766
 31
0.0
  0
LINE
  8
0
 62
     0
 10
79.3323
 20
79.6766
 30
0.0
 11
79.5154
 21
79.5073
 31
0.0
  0
LINE
  8
0
 62
     0
 10
79.5154
 20
79.5073
 30
0.0
 11
79.6851
 21
79.3238
 31
0.0
  0
LINE
  8
0
 62
     0
 10
79.6851
 20
79.3238
 30
0.0
 11
79.8393
 21
79.1284
 31
0.0
  0
LINE
  8
0
 62
     0
 10
79.8393
 20
79.1284
 30
0.0
 11
79.9772
 21
78.9203
 31
0.0
  0
LINE
  8
0
 62
     0
 10
79.9772
 20
78.9203
 30
0.0
 11
80.0985
 21
78.704
 31
0.0
  0
LINE
  8
0
 62
     0
 10
80.0985
 20
78.704
 30
0.0
 11
80.2033
 21
78.4779
 31
0.0
  0
LINE
  8
0
 62
     0
 10
80.2033
 20
78.4779
 30
0.0
 11
80.2901
 21
78.2436
 31
0.0
  0
LINE
  8
0
 62
     0
 10
80.2901
 20
78.2436
 30
0.0
 11
80.3575
 21
78.0038
 31
0.0
  0
LINE
  8
0
 62
     0
 10
80.3575
 20
78.0038
 30
0.0
 11
80.4058
 21
77.7586
 31
0.0
  0
LINE
  8
0
 62
     0
 10
80.4058
 20
77.7586
 30
0.0
 11
80.4362
 21
77.512
 31
0.0
  0
LINE
  8
0
 62
     0
 10
80.4362
 20
77.512
 30
0.0
 11
80.4457
 21
77.2612
 31
0.0
  0
LINE
  8
0
 62
     0
 10
80.4457
 20
77.2612
 30
0.0
 11
80.4457
 21
3.26044
 31
0.0
  0
LINE
  8
0
 62
     0
 10
80.4457
 20
3.26044
 30
0.0
 11
80.4362
 21
3.01101
 31
0.0
  0
LINE
  8
0
 62
     0
 10
80.4362
 20
3.01101
 30
0.0
 11
80.4058
 21
2.76435
 31
0.0
  0
LINE
  8
0
 62
     0
 10
80.4058
 20
2.76435
 30
0.0
 11
80.3575
 21
2.51906
 31
0.0
  0
LINE
  8
0
 62
     0
 10
80.3575
 20
2.51906
 30
0.0
 11
80.2901
 21
2.27928
 31
0.0
  0
LINE
  8
0
 62
     0
 10
80.2901
 20
2.27928
 30
0.0
 11
80.2033
 21
2.04501
 31
0.0
  0
LINE
  8
0
 62
     0
 10
80.2033
 20
2.04501
 30
0.0
 11
80.0985
 21
1.81901
 31
0.0
  0
LINE
  8
0
 62
     0
 10
80.0985
 20
1.81901
 30
0.0
 11
79.9772
 21
1.60266
 31
0.0
  0
LINE
  8
0
 62
     0
 10
79.9772
 20
1.60266
 30
0.0
 11
79.8393
 21
1.39458
 31
0.0
  0
LINE
  8
0
 62
     0
 10
79.8393
 20
1.39458
 30
0.0
 11
79.6851
 21
1.19889
 31
0.0
  0
LINE
  8
0
 62
     0
 10
79.6851
 20
1.19889
 30
0.0
 11
79.5154
 21
1.01562
 31
0.0
  0
LINE
  8
0
 62
     0
 10
79.5154
 20
1.01562
 30
0.0
 11
79.3323
 21
0.846116
 31
0.0
  0
LINE
  8
0
 62
     0
 10
79.3323
 20
0.846116
 30
0.0
 11
79.1365
 21
0.691776
 31
0.0
  0
LINE
  8
0
 62
     0
 10
79.1365
 20
0.691776
 30
0.0
 11
78.9284
 21
0.55397
 31
0.0
  0
LINE
  8
0
 62
     0
 10
78.9284
 20
0.55397
 30
0.0
 11
78.7121
 21
0.432703
 31
0.0
  0
LINE
  8
0
 62
     0
 10
78.7121
 20
0.432703
 30
0.0
 11
78.486
 21
0.327973
 31
0.0
  0
LINE
  8
0
 62
     0
 10
78.486
 20
0.327973
 30
0.0
 11
78.2518
 21
0.241157
 31
0.0
  0
LINE
  8
0
 62
     0
 10
78.2518
 20
0.241157
 30
0.0
 11
78.0122
 21
0.173633
 31
0.0
  0
LINE
  8
0
 62
     0
 10
78.0122
 20
0.173633
 30
0.0
 11
77.7667
 21
0.125402
 31
0.0
  0
LINE
  8
0
 62
     0
 10
77.7667
 20
0.125402
 30
0.0
 11
77.5201
 21
0.0950846
 31
0.0
  0
LINE
  8
0
 62
     0
 10
77.5201
 20
0.0950846
 30
0.0
 11
77.2693
 21
0.0854385
 31
0.0
  0
LINE
  8
0
 62
     0
 10
77.2693
 20
0.0854385
 30
0.0
 11
3.27008
 21
0.0854385
 31
0.0
  0
LINE
  8
0
 62
     0
 10
3.27008
 20
0.0854385
 30
0.0
 11
3.01928
 21
0.0950846
 31
0.0
  0
LINE
  8
0
 62
     0
 10
3.01928
 20
0.0950846
 30
0.0
 11
2.77261
 21
0.125402
 31
0.0
  0
LINE
  8
0
 62
     0
 10
2.77261
 20
0.125402
 30
0.0
 11
2.52732
 21
0.173633
 31
0.0
  0
LINE
  8
0
 62
     0
 10
2.52732
 20
0.173633
 30
0.0
 11
2.28755
 21
0.241157
 31
0.0
  0
LINE
  8
0
 62
     0
 10
2.28755
 20
0.241157
 30
0.0
 11
2.05328
 21
0.327973
 31
0.0
  0
LINE
  8
0
 62
     0
 10
2.05328
 20
0.327973
 30
0.0
 11
1.82728
 21
0.432703
 31
0.0
  0
LINE
  8
0
 62
     0
 10
1.82728
 20
0.432703
 30
0.0
 11
1.61093
 21
0.55397
 31
0.0
  0
LINE
  8
0
 62
     0
 10
1.61093
 20
0.55397
 30
0.0
 11
1.40284
 21
0.691776
 31
0.0
  0
LINE
  8
0
 62
     0
 10
1.40284
 20
0.691776
 30
0.0
 11
1.20716
 21
0.846116
 31
0.0
  0
LINE
  8
0
 62
     0
 10
1.20716
 20
0.846116
 30
0.0
 11
1.02388
 21
1.01562
 31
0.0
  0
LINE
  8
0
 62
     0
 10
1.02388
 20
1.01562
 30
0.0
 11
0.854385
 21
1.19889
 31
0.0
  0
LINE
  8
0
 62
     0
 10
0.854385
 20
1.19889
 30
0.0
 11
0.701421
 21
1.39458
 31
0.0
  0
LINE
  8
0
 62
     0
 10
0.701421
 20
1.39458
 30
0.0
 11
0.56224
 21
1.60266
 31
0.0
  0
LINE
  8
0
 62
     0
 10
0.56224
 20
1.60266
 30
0.0
 11
0.440972
 21
1.81901
 31
0.0
  0
LINE
  8
0
 62
     0
 10
0.440972
 20
1.81901
 30
0.0
 11
0.336241
 21
2.04501
 31
0.0
  0
LINE
  8
0
 62
     0
 10
0.336241
 20
2.04501
 30
0.0
 11
0.249425
 21
2.27928
 31
0.0
  0
LINE
  8
0
 62
     0
 10
0.249425
 20
2.27928
 30
0.0
 11
0.181901
 21
2.51906
 31
0.0
  0
LINE
  8
0
 62
     0
 10
0.181901
 20
2.51906
 30
0.0
 11
0.13367
 21
2.76435
 31
0.0
  0
LINE
  8
0
 62
     0
 10
0.13367
 20
2.76435
 30
0.0
 11
0.103353
 21
3.01101
 31
0.0
  0
LINE
  8
0
 62
     0
 10
0.103353
 20
3.01101
 30
0.0
 11
0.0937066
 21
3.26044
 31
0.0
  0
LINE
  8
0
 62
     0
 10
0.0937066
 20
3.26044
 30
0.0
 11
0.0950846
 21
77.2612
 31
0.0
  0
LINE
  8
0
 62
     0
 10
0.0950846
 20
77.2612
 30
0.0
 11
0.103353
 21
77.512
 31
0.0
  0
LINE
  8
0
 62
     0
 10
0.103353
 20
77.512
 30
0.0
 11
0.13367
 21
77.7586
 31
0.0
  0
LINE
  8
0
 62
     0
 10
0.13367
 20
77.7586
 30
0.0
 11
0.181901
 21
78.0038
 31
0.0
  0
LINE
  8
0
 62
     0
 10
0.181901
 20
78.0038
 30
0.0
 11
0.249425
 21
78.2436
 31
0.0
  0
LINE
  8
0
 62
     0
 10
0.249425
 20
78.2436
 30
0.0
 11
0.336241
 21
78.4779
 31
0.0
  0
LINE
  8
0
 62
     0
 10
0.336241
 20
78.4779
 30
0.0
 11
0.440972
 21
78.704
 31
0.0
  0
LINE
  8
0
 62
     0
 10
0.440972
 20
78.704
 30
0.0
 11
0.56224
 21
78.9203
 31
0.0
  0
LINE
  8
0
 62
     0
 10
0.56224
 20
78.9203
 30
0.0
 11
0.701421
 21
79.1284
 31
0.0
  0
LINE
  8
0
 62
     0
 10
0.701421
 20
79.1284
 30
0.0
 11
0.854385
 21
79.3238
 31
0.0
  0
LINE
  8
0
 62
     0
 10
0.854385
 20
79.3238
 30
0.0
 11
1.02388
 21
79.5073
 31
0.0
  0
LINE
  8
0
 62
     0
 10
1.02388
 20
79.5073
 30
0.0
 11
1.20716
 21
79.6766
 31
0.0
  0
LINE
  8
0
 62
     0
 10
1.20716
 20
79.6766
 30
0.0
 11
1.40284
 21
79.8297
 31
0.0
  0
LINE
  8
0
 62
     0
 10
1.40284
 20
79.8297
 30
0.0
 11
1.61093
 21
79.9691
 31
0.0
  0
LINE
  8
0
 62
     0
 10
1.61093
 20
79.9691
 30
0.0
 11
1.82728
 21
80.0901
 31
0.0
  0
LINE
  8
0
 62
     0
 10
1.82728
 20
80.0901
 30
0.0
 11
2.05328
 21
80.1949
 31
0.0
  0
LINE
  8
0
 62
     0
 10
2.05328
 20
80.1949
 30
0.0
 11
2.28755
 21
80.2816
 31
0.0
  0
LINE
  8
0
 62
     0
 10
2.28755
 20
80.2816
 30
0.0
 11
2.52732
 21
80.3494
 31
0.0
  0
LINE
  8
0
 62
     0
 10
2.52732
 20
80.3494
 30
0.0
 11
2.77261
 21
80.3973
 31
0.0
  0
LINE
  8
0
 62
     0
 10
2.77261
 20
80.3973
 30
0.0
 11
3.01928
 21
80.4277
 31
0.0
  0
LINE
  8
0
 62
     0
 10
3.01928
 20
80.4277
 30
0.0
 11
3.27008
 21
80.4376
 31
0.0
  0
LINE
  8
0
 62
     0
 10
3.27008
 20
80.4376
 30
0.0
 11
77.2707
 21
80.4362
 31
0.0
  0
LINE
  8
0
 62
     0
 10
7.74319
 20
19.3614
 30
0.0
 11
7.74319
 21
18.3817
 31
0.0
  0
LINE
  8
0
 62
     0
 10
7.74319
 20
18.3817
 30
0.0
 11
6.01927
 21
18.3817
 31
0.0
  0
LINE
  8
0
 62
     0
 10
6.01927
 20
18.3817
 30
0.0
 11
6.01927
 21
12.1116
 31
0.0
  0
LINE
  8
0
 62
     0
 10
6.01927
 20
12.1116
 30
0.0
 11
5.19384
 21
12.1116
 31
0.0
  0
LINE
  8
0
 62
     0
 10
5.19384
 20
12.1116
 30
0.0
 11
5.19384
 21
9.46161
 31
0.0
  0
LINE
  8
0
 62
     0
 10
5.19384
 20
9.46161
 30
0.0
 11
6.01927
 21
9.46161
 31
0.0
  0
LINE
  8
0
 62
     0
 10
6.01927
 20
9.46161
 30
0.0
 11
6.01927
 21
6.2315
 31
0.0
  0
LINE
  8
0
 62
     0
 10
6.01927
 20
6.2315
 30
0.0
 11
7.74319
 21
6.2315
 31
0.0
  0
LINE
  8
0
 62
     0
 10
7.74319
 20
6.2315
 30
0.0
 11
7.74319
 21
5.31096
 31
0.0
  0
LINE
  8
0
 62
     0
 10
7.74319
 20
5.31096
 30
0.0
 11
10.8948
 21
5.31096
 31
0.0
  0
LINE
  8
0
 62
     0
 10
10.8948
 20
5.31096
 30
0.0
 11
10.8948
 21
6.2315
 31
0.0
  0
LINE
  8
0
 62
     0
 10
10.8948
 20
6.2315
 30
0.0
 11
12.6201
 21
6.2315
 31
0.0
  0
LINE
  8
0
 62
     0
 10
12.6201
 20
6.2315
 30
0.0
 11
12.6201
 21
9.46161
 31
0.0
  0
LINE
  8
0
 62
     0
 10
12.6201
 20
9.46161
 30
0.0
 11
14.2944
 21
9.46161
 31
0.0
  0
LINE
  8
0
 62
     0
 10
14.2944
 20
9.46161
 30
0.0
 11
14.2944
 21
8.71195
 31
0.0
  0
LINE
  8
0
 62
     0
 10
14.2944
 20
8.71195
 30
0.0
 11
13.4951
 21
8.71195
 31
0.0
  0
LINE
  8
0
 62
     0
 10
13.4951
 20
8.71195
 30
0.0
 11
13.4951
 21
5.76157
 31
0.0
  0
LINE
  8
0
 62
     0
 10
13.4951
 20
5.76157
 30
0.0
 11
14.2944
 21
5.76157
 31
0.0
  0
LINE
  8
0
 62
     0
 10
14.2944
 20
5.76157
 30
0.0
 11
14.2944
 21
4.76112
 31
0.0
  0
LINE
  8
0
 62
     0
 10
14.2944
 20
4.76112
 30
0.0
 11
28.1451
 21
4.76112
 31
0.0
  0
LINE
  8
0
 62
     0
 10
28.1451
 20
4.76112
 30
0.0
 11
28.1451
 21
5.76157
 31
0.0
  0
LINE
  8
0
 62
     0
 10
28.1451
 20
5.76157
 30
0.0
 11
28.9443
 21
5.76157
 31
0.0
  0
LINE
  8
0
 62
     0
 10
28.9443
 20
5.76157
 30
0.0
 11
28.9443
 21
8.71195
 31
0.0
  0
LINE
  8
0
 62
     0
 10
28.9443
 20
8.71195
 30
0.0
 11
28.1451
 21
8.71195
 31
0.0
  0
LINE
  8
0
 62
     0
 10
28.1451
 20
8.71195
 30
0.0
 11
28.1451
 21
9.46161
 31
0.0
  0
LINE
  8
0
 62
     0
 10
28.1451
 20
9.46161
 30
0.0
 11
29.8194
 21
9.46161
 31
0.0
  0
LINE
  8
0
 62
     0
 10
29.8194
 20
9.46161
 30
0.0
 11
29.8194
 21
6.2315
 31
0.0
  0
LINE
  8
0
 62
     0
 10
29.8194
 20
6.2315
 30
0.0
 11
31.5447
 21
6.2315
 31
0.0
  0
LINE
  8
0
 62
     0
 10
31.5447
 20
6.2315
 30
0.0
 11
31.5447
 21
5.31096
 31
0.0
  0
LINE
  8
0
 62
     0
 10
31.5447
 20
5.31096
 30
0.0
 11
34.6949
 21
5.31096
 31
0.0
  0
LINE
  8
0
 62
     0
 10
34.6949
 20
5.31096
 30
0.0
 11
34.6949
 21
6.2315
 31
0.0
  0
LINE
  8
0
 62
     0
 10
34.6949
 20
6.2315
 30
0.0
 11
36.4201
 21
6.2315
 31
0.0
  0
LINE
  8
0
 62
     0
 10
36.4201
 20
6.2315
 30
0.0
 11
36.4201
 21
9.46161
 31
0.0
  0
LINE
  8
0
 62
     0
 10
36.4201
 20
9.46161
 30
0.0
 11
37.2442
 21
9.46161
 31
0.0
  0
LINE
  8
0
 62
     0
 10
37.2442
 20
9.46161
 30
0.0
 11
37.2442
 21
12.1116
 31
0.0
  0
LINE
  8
0
 62
     0
 10
37.2442
 20
12.1116
 30
0.0
 11
36.4201
 21
12.1116
 31
0.0
  0
LINE
  8
0
 62
     0
 10
36.4201
 20
12.1116
 30
0.0
 11
36.4201
 21
18.383
 31
0.0
  0
LINE
  8
0
 62
     0
 10
36.4201
 20
18.383
 30
0.0
 11
34.6949
 21
18.383
 31
0.0
  0
LINE
  8
0
 62
     0
 10
34.6949
 20
18.383
 30
0.0
 11
34.6949
 21
19.3614
 31
0.0
  0
LINE
  8
0
 62
     0
 10
34.6949
 20
19.3614
 30
0.0
 11
31.5433
 21
19.3614
 31
0.0
  0
LINE
  8
0
 62
     0
 10
31.5433
 20
19.3614
 30
0.0
 11
31.5447
 21
18.3817
 31
0.0
  0
LINE
  8
0
 62
     0
 10
31.5447
 20
18.3817
 30
0.0
 11
29.8194
 21
18.3817
 31
0.0
  0
LINE
  8
0
 62
     0
 10
29.8194
 20
18.3817
 30
0.0
 11
29.8194
 21
13.9113
 31
0.0
  0
LINE
  8
0
 62
     0
 10
29.8194
 20
13.9113
 30
0.0
 11
28.1451
 21
13.9113
 31
0.0
  0
LINE
  8
0
 62
     0
 10
28.1451
 20
13.9113
 30
0.0
 11
28.1451
 21
14.661
 31
0.0
  0
LINE
  8
0
 62
     0
 10
28.1451
 20
14.661
 30
0.0
 11
28.9443
 21
14.661
 31
0.0
  0
LINE
  8
0
 62
     0
 10
28.9443
 20
14.661
 30
0.0
 11
28.9443
 21
17.6113
 31
0.0
  0
LINE
  8
0
 62
     0
 10
28.9443
 20
17.6113
 30
0.0
 11
28.1451
 21
17.6113
 31
0.0
  0
LINE
  8
0
 62
     0
 10
28.1451
 20
17.6113
 30
0.0
 11
28.1451
 21
18.6118
 31
0.0
  0
LINE
  8
0
 62
     0
 10
28.1451
 20
18.6118
 30
0.0
 11
14.2944
 21
18.6118
 31
0.0
  0
LINE
  8
0
 62
     0
 10
14.2944
 20
18.6118
 30
0.0
 11
14.2944
 21
17.6113
 31
0.0
  0
LINE
  8
0
 62
     0
 10
14.2944
 20
17.6113
 30
0.0
 11
13.4951
 21
17.6113
 31
0.0
  0
LINE
  8
0
 62
     0
 10
13.4951
 20
17.6113
 30
0.0
 11
13.4951
 21
14.661
 31
0.0
  0
LINE
  8
0
 62
     0
 10
13.4951
 20
14.661
 30
0.0
 11
14.2944
 21
14.661
 31
0.0
  0
LINE
  8
0
 62
     0
 10
14.2944
 20
14.661
 30
0.0
 11
14.2944
 21
13.9113
 31
0.0
  0
LINE
  8
0
 62
     0
 10
14.2944
 20
13.9113
 30
0.0
 11
12.6201
 21
13.9113
 31
0.0
  0
LINE
  8
0
 62
     0
 10
12.6201
 20
13.9113
 30
0.0
 11
12.6201
 21
18.3817
 31
0.0
  0
LINE
  8
0
 62
     0
 10
12.6201
 20
18.3817
 30
0.0
 11
10.8948
 21
18.3817
 31
0.0
  0
LINE
  8
0
 62
     0
 10
10.8948
 20
18.3817
 30
0.0
 11
10.8934
 21
19.3614
 31
0.0
  0
LINE
  8
0
 62
     0
 10
10.8934
 20
19.3614
 30
0.0
 11
7.74319
 21
19.3614
 31
0.0
  0
LINE
  8
0
 62
     0
 10
42.8696
 20
18.6118
 30
0.0
 11
42.8696
 21
17.6113
 31
0.0
  0
LINE
  8
0
 62
     0
 10
42.8696
 20
17.6113
 30
0.0
 11
42.0702
 21
17.6113
 31
0.0
  0
LINE
  8
0
 62
     0
 10
42.0702
 20
17.6113
 30
0.0
 11
42.0702
 21
14.661
 31
0.0
  0
LINE
  8
0
 62
     0
 10
42.0702
 20
14.661
 30
0.0
 11
42.8696
 21
14.661
 31
0.0
  0
LINE
  8
0
 62
     0
 10
42.8696
 20
14.661
 30
0.0
 11
42.8696
 21
8.71195
 31
0.0
  0
LINE
  8
0
 62
     0
 10
42.8696
 20
8.71195
 30
0.0
 11
42.0702
 21
8.71195
 31
0.0
  0
LINE
  8
0
 62
     0
 10
42.0702
 20
8.71195
 30
0.0
 11
42.0702
 21
5.76157
 31
0.0
  0
LINE
  8
0
 62
     0
 10
42.0702
 20
5.76157
 30
0.0
 11
42.8696
 21
5.76157
 31
0.0
  0
LINE
  8
0
 62
     0
 10
42.8696
 20
5.76157
 30
0.0
 11
42.8696
 21
4.76112
 31
0.0
  0
LINE
  8
0
 62
     0
 10
42.8696
 20
4.76112
 30
0.0
 11
56.72
 21
4.76112
 31
0.0
  0
LINE
  8
0
 62
     0
 10
56.72
 20
4.76112
 30
0.0
 11
56.72
 21
5.76157
 31
0.0
  0
LINE
  8
0
 62
     0
 10
56.72
 20
5.76157
 30
0.0
 11
57.5194
 21
5.76157
 31
0.0
  0
LINE
  8
0
 62
     0
 10
57.5194
 20
5.76157
 30
0.0
 11
57.5194
 21
8.71195
 31
0.0
  0
LINE
  8
0
 62
     0
 10
57.5194
 20
8.71195
 30
0.0
 11
56.72
 21
8.71195
 31
0.0
  0
LINE
  8
0
 62
     0
 10
56.72
 20
8.71195
 30
0.0
 11
56.72
 21
14.661
 31
0.0
  0
LINE
  8
0
 62
     0
 10
56.72
 20
14.661
 30
0.0
 11
57.5194
 21
14.661
 31
0.0
  0
LINE
  8
0
 62
     0
 10
57.5194
 20
14.661
 30
0.0
 11
57.5194
 21
17.6113
 31
0.0
  0
LINE
  8
0
 62
     0
 10
57.5194
 20
17.6113
 30
0.0
 11
56.72
 21
17.6113
 31
0.0
  0
LINE
  8
0
 62
     0
 10
56.72
 20
17.6113
 30
0.0
 11
56.72
 21
18.6118
 31
0.0
  0
LINE
  8
0
 62
     0
 10
56.72
 20
18.6118
 30
0.0
 11
42.8696
 21
18.6118
 31
0.0
  0
LINE
  8
0
 62
     0
 10
68.4195
 20
37.236
 30
0.0
 11
68.4195
 21
36.412
 31
0.0
  0
LINE
  8
0
 62
     0
 10
68.4195
 20
36.412
 30
0.0
 11
62.1496
 21
36.412
 31
0.0
  0
LINE
  8
0
 62
     0
 10
62.1496
 20
36.412
 30
0.0
 11
62.1496
 21
34.6866
 31
0.0
  0
LINE
  8
0
 62
     0
 10
62.1496
 20
34.6866
 30
0.0
 11
61.1699
 21
34.6866
 31
0.0
  0
LINE
  8
0
 62
     0
 10
61.1699
 20
34.6866
 30
0.0
 11
61.1699
 21
31.5364
 31
0.0
  0
LINE
  8
0
 62
     0
 10
61.1699
 20
31.5364
 30
0.0
 11
62.1496
 21
31.5364
 31
0.0
  0
LINE
  8
0
 62
     0
 10
62.1496
 20
31.5364
 30
0.0
 11
62.1496
 21
29.8111
 31
0.0
  0
LINE
  8
0
 62
     0
 10
62.1496
 20
29.8111
 30
0.0
 11
66.62
 21
29.8111
 31
0.0
  0
LINE
  8
0
 62
     0
 10
66.62
 20
29.8111
 30
0.0
 11
66.62
 21
28.1368
 31
0.0
  0
LINE
  8
0
 62
     0
 10
66.62
 20
28.1368
 30
0.0
 11
65.8703
 21
28.1368
 31
0.0
  0
LINE
  8
0
 62
     0
 10
65.8703
 20
28.1368
 30
0.0
 11
65.8703
 21
28.936
 31
0.0
  0
LINE
  8
0
 62
     0
 10
65.8703
 20
28.936
 30
0.0
 11
62.9197
 21
28.936
 31
0.0
  0
LINE
  8
0
 62
     0
 10
62.9197
 20
28.936
 30
0.0
 11
62.9197
 21
28.1368
 31
0.0
  0
LINE
  8
0
 62
     0
 10
62.9197
 20
28.1368
 30
0.0
 11
61.9196
 21
28.1368
 31
0.0
  0
LINE
  8
0
 62
     0
 10
61.9196
 20
28.1368
 30
0.0
 11
61.9196
 21
14.2861
 31
0.0
  0
LINE
  8
0
 62
     0
 10
61.9196
 20
14.2861
 30
0.0
 11
62.9197
 21
14.2861
 31
0.0
  0
LINE
  8
0
 62
     0
 10
62.9197
 20
14.2861
 30
0.0
 11
62.9197
 21
13.4869
 31
0.0
  0
LINE
  8
0
 62
     0
 10
62.9197
 20
13.4869
 30
0.0
 11
65.8703
 21
13.4869
 31
0.0
  0
LINE
  8
0
 62
     0
 10
65.8703
 20
13.4869
 30
0.0
 11
65.8703
 21
14.2861
 31
0.0
  0
LINE
  8
0
 62
     0
 10
65.8703
 20
14.2861
 30
0.0
 11
66.62
 21
14.2861
 31
0.0
  0
LINE
  8
0
 62
     0
 10
66.62
 20
14.2861
 30
0.0
 11
66.62
 21
12.6118
 31
0.0
  0
LINE
  8
0
 62
     0
 10
66.62
 20
12.6118
 30
0.0
 11
62.1496
 21
12.6118
 31
0.0
  0
LINE
  8
0
 62
     0
 10
62.1496
 20
12.6118
 30
0.0
 11
62.1496
 21
10.8865
 31
0.0
  0
LINE
  8
0
 62
     0
 10
62.1496
 20
10.8865
 30
0.0
 11
61.1699
 21
10.8865
 31
0.0
  0
LINE
  8
0
 62
     0
 10
61.1699
 20
10.8865
 30
0.0
 11
61.1699
 21
7.73631
 31
0.0
  0
LINE
  8
0
 62
     0
 10
61.1699
 20
7.73631
 30
0.0
 11
62.1496
 21
7.73631
 31
0.0
  0
LINE
  8
0
 62
     0
 10
62.1496
 20
7.73631
 30
0.0
 11
62.1496
 21
6.01102
 31
0.0
  0
LINE
  8
0
 62
     0
 10
62.1496
 20
6.01102
 30
0.0
 11
68.4195
 21
6.01102
 31
0.0
  0
LINE
  8
0
 62
     0
 10
68.4195
 20
6.01102
 30
0.0
 11
68.4195
 21
5.18693
 31
0.0
  0
LINE
  8
0
 62
     0
 10
68.4195
 20
5.18693
 30
0.0
 11
71.0696
 21
5.18693
 31
0.0
  0
LINE
  8
0
 62
     0
 10
71.0696
 20
5.18693
 30
0.0
 11
71.0696
 21
6.01102
 31
0.0
  0
LINE
  8
0
 62
     0
 10
71.0696
 20
6.01102
 30
0.0
 11
74.2996
 21
6.01102
 31
0.0
  0
LINE
  8
0
 62
     0
 10
74.2996
 20
6.01102
 30
0.0
 11
74.2996
 21
7.73631
 31
0.0
  0
LINE
  8
0
 62
     0
 10
74.2996
 20
7.73631
 30
0.0
 11
75.2203
 21
7.73631
 31
0.0
  0
LINE
  8
0
 62
     0
 10
75.2203
 20
7.73631
 30
0.0
 11
75.2203
 21
10.8865
 31
0.0
  0
LINE
  8
0
 62
     0
 10
75.2203
 20
10.8865
 30
0.0
 11
74.2996
 21
10.8865
 31
0.0
  0
LINE
  8
0
 62
     0
 10
74.2996
 20
10.8865
 30
0.0
 11
74.2996
 21
12.6118
 31
0.0
  0
LINE
  8
0
 62
     0
 10
74.2996
 20
12.6118
 30
0.0
 11
71.0696
 21
12.6118
 31
0.0
  0
LINE
  8
0
 62
     0
 10
71.0696
 20
12.6118
 30
0.0
 11
71.0696
 21
14.2861
 31
0.0
  0
LINE
  8
0
 62
     0
 10
71.0696
 20
14.2861
 30
0.0
 11
71.8192
 21
14.2861
 31
0.0
  0
LINE
  8
0
 62
     0
 10
71.8192
 20
14.2861
 30
0.0
 11
71.8192
 21
13.4869
 31
0.0
  0
LINE
  8
0
 62
     0
 10
71.8192
 20
13.4869
 30
0.0
 11
74.7695
 21
13.4869
 31
0.0
  0
LINE
  8
0
 62
     0
 10
74.7695
 20
13.4869
 30
0.0
 11
74.7695
 21
14.2861
 31
0.0
  0
LINE
  8
0
 62
     0
 10
74.7695
 20
14.2861
 30
0.0
 11
75.77
 21
14.2861
 31
0.0
  0
LINE
  8
0
 62
     0
 10
75.77
 20
14.2861
 30
0.0
 11
75.77
 21
28.1368
 31
0.0
  0
LINE
  8
0
 62
     0
 10
75.77
 20
28.1368
 30
0.0
 11
74.7695
 21
28.1368
 31
0.0
  0
LINE
  8
0
 62
     0
 10
74.7695
 20
28.1368
 30
0.0
 11
74.7695
 21
28.936
 31
0.0
  0
LINE
  8
0
 62
     0
 10
74.7695
 20
28.936
 30
0.0
 11
71.8192
 21
28.936
 31
0.0
  0
LINE
  8
0
 62
     0
 10
71.8192
 20
28.936
 30
0.0
 11
71.8192
 21
28.1368
 31
0.0
  0
LINE
  8
0
 62
     0
 10
71.8192
 20
28.1368
 30
0.0
 11
71.0696
 21
28.1368
 31
0.0
  0
LINE
  8
0
 62
     0
 10
71.0696
 20
28.1368
 30
0.0
 11
71.0696
 21
29.8111
 31
0.0
  0
LINE
  8
0
 62
     0
 10
71.0696
 20
29.8111
 30
0.0
 11
74.2996
 21
29.8111
 31
0.0
  0
LINE
  8
0
 62
     0
 10
74.2996
 20
29.8111
 30
0.0
 11
74.2996
 21
31.5364
 31
0.0
  0
LINE
  8
0
 62
     0
 10
74.2996
 20
31.5364
 30
0.0
 11
75.2203
 21
31.5364
 31
0.0
  0
LINE
  8
0
 62
     0
 10
75.2203
 20
31.5364
 30
0.0
 11
75.2203
 21
34.6866
 31
0.0
  0
LINE
  8
0
 62
     0
 10
75.2203
 20
34.6866
 30
0.0
 11
74.2996
 21
34.6866
 31
0.0
  0
LINE
  8
0
 62
     0
 10
74.2996
 20
34.6866
 30
0.0
 11
74.2996
 21
36.412
 31
0.0
  0
LINE
  8
0
 62
     0
 10
74.2996
 20
36.412
 30
0.0
 11
71.0696
 21
36.412
 31
0.0
  0
LINE
  8
0
 62
     0
 10
71.0696
 20
36.412
 30
0.0
 11
71.0696
 21
37.236
 31
0.0
  0
LINE
  8
0
 62
     0
 10
71.0696
 20
37.236
 30
0.0
 11
68.4195
 21
37.236
 31
0.0
  0
LINE
  8
0
 62
     0
 10
4.76938
 20
37.6619
 30
0.0
 11
4.76938
 21
36.6614
 31
0.0
  0
LINE
  8
0
 62
     0
 10
4.76938
 20
36.6614
 30
0.0
 11
3.97013
 21
36.6614
 31
0.0
  0
LINE
  8
0
 62
     0
 10
3.97013
 20
36.6614
 30
0.0
 11
3.97013
 21
33.711
 31
0.0
  0
LINE
  8
0
 62
     0
 10
3.97013
 20
33.711
 30
0.0
 11
4.76938
 21
33.711
 31
0.0
  0
LINE
  8
0
 62
     0
 10
4.76938
 20
33.711
 30
0.0
 11
4.76938
 21
27.762
 31
0.0
  0
LINE
  8
0
 62
     0
 10
4.76938
 20
27.762
 30
0.0
 11
3.97013
 21
27.762
 31
0.0
  0
LINE
  8
0
 62
     0
 10
3.97013
 20
27.762
 30
0.0
 11
3.97013
 21
24.8116
 31
0.0
  0
LINE
  8
0
 62
     0
 10
3.97013
 20
24.8116
 30
0.0
 11
4.76938
 21
24.8116
 31
0.0
  0
LINE
  8
0
 62
     0
 10
4.76938
 20
24.8116
 30
0.0
 11
4.76938
 21
23.8111
 31
0.0
  0
LINE
  8
0
 62
     0
 10
4.76938
 20
23.8111
 30
0.0
 11
18.6201
 21
23.8111
 31
0.0
  0
LINE
  8
0
 62
     0
 10
18.6201
 20
23.8111
 30
0.0
 11
18.6201
 21
24.8116
 31
0.0
  0
LINE
  8
0
 62
     0
 10
18.6201
 20
24.8116
 30
0.0
 11
19.4193
 21
24.8116
 31
0.0
  0
LINE
  8
0
 62
     0
 10
19.4193
 20
24.8116
 30
0.0
 11
19.4193
 21
27.762
 31
0.0
  0
LINE
  8
0
 62
     0
 10
19.4193
 20
27.762
 30
0.0
 11
18.6201
 21
27.762
 31
0.0
  0
LINE
  8
0
 62
     0
 10
18.6201
 20
27.762
 30
0.0
 11
18.6201
 21
33.711
 31
0.0
  0
LINE
  8
0
 62
     0
 10
18.6201
 20
33.711
 30
0.0
 11
19.4193
 21
33.711
 31
0.0
  0
LINE
  8
0
 62
     0
 10
19.4193
 20
33.711
 30
0.0
 11
19.4193
 21
36.6614
 31
0.0
  0
LINE
  8
0
 62
     0
 10
19.4193
 20
36.6614
 30
0.0
 11
18.6201
 21
36.6614
 31
0.0
  0
LINE
  8
0
 62
     0
 10
18.6201
 20
36.6614
 30
0.0
 11
18.6201
 21
37.6619
 31
0.0
  0
LINE
  8
0
 62
     0
 10
18.6201
 20
37.6619
 30
0.0
 11
4.76938
 21
37.6619
 31
0.0
  0
LINE
  8
0
 62
     0
 10
23.8194
 20
37.6619
 30
0.0
 11
23.8194
 21
36.6614
 31
0.0
  0
LINE
  8
0
 62
     0
 10
23.8194
 20
36.6614
 30
0.0
 11
23.0201
 21
36.6614
 31
0.0
  0
LINE
  8
0
 62
     0
 10
23.0201
 20
36.6614
 30
0.0
 11
23.0201
 21
33.711
 31
0.0
  0
LINE
  8
0
 62
     0
 10
23.0201
 20
33.711
 30
0.0
 11
23.8194
 21
33.711
 31
0.0
  0
LINE
  8
0
 62
     0
 10
23.8194
 20
33.711
 30
0.0
 11
23.8194
 21
27.762
 31
0.0
  0
LINE
  8
0
 62
     0
 10
23.8194
 20
27.762
 30
0.0
 11
23.0201
 21
27.762
 31
0.0
  0
LINE
  8
0
 62
     0
 10
23.0201
 20
27.762
 30
0.0
 11
23.0201
 21
24.8116
 31
0.0
  0
LINE
  8
0
 62
     0
 10
23.0201
 20
24.8116
 30
0.0
 11
23.8194
 21
24.8116
 31
0.0
  0
LINE
  8
0
 62
     0
 10
23.8194
 20
24.8116
 30
0.0
 11
23.8194
 21
23.8111
 31
0.0
  0
LINE
  8
0
 62
     0
 10
23.8194
 20
23.8111
 30
0.0
 11
37.67
 21
23.8111
 31
0.0
  0
LINE
  8
0
 62
     0
 10
37.67
 20
23.8111
 30
0.0
 11
37.67
 21
24.8116
 31
0.0
  0
LINE
  8
0
 62
     0
 10
37.67
 20
24.8116
 30
0.0
 11
38.4694
 21
24.8116
 31
0.0
  0
LINE
  8
0
 62
     0
 10
38.4694
 20
24.8116
 30
0.0
 11
38.4694
 21
27.762
 31
0.0
  0
LINE
  8
0
 62
     0
 10
38.4694
 20
27.762
 30
0.0
 11
37.67
 21
27.762
 31
0.0
  0
LINE
  8
0
 62
     0
 10
37.67
 20
27.762
 30
0.0
 11
37.67
 21
33.711
 31
0.0
  0
LINE
  8
0
 62
     0
 10
37.67
 20
33.711
 30
0.0
 11
38.4694
 21
33.711
 31
0.0
  0
LINE
  8
0
 62
     0
 10
38.4694
 20
33.711
 30
0.0
 11
38.4694
 21
36.6614
 31
0.0
  0
LINE
  8
0
 62
     0
 10
38.4694
 20
36.6614
 30
0.0
 11
37.67
 21
36.6614
 31
0.0
  0
LINE
  8
0
 62
     0
 10
37.67
 20
36.6614
 30
0.0
 11
37.67
 21
37.6619
 31
0.0
  0
LINE
  8
0
 62
     0
 10
37.67
 20
37.6619
 30
0.0
 11
23.8194
 21
37.6619
 31
0.0
  0
LINE
  8
0
 62
     0
 10
42.8696
 20
37.6619
 30
0.0
 11
42.8696
 21
36.6614
 31
0.0
  0
LINE
  8
0
 62
     0
 10
42.8696
 20
36.6614
 30
0.0
 11
42.0702
 21
36.6614
 31
0.0
  0
LINE
  8
0
 62
     0
 10
42.0702
 20
36.6614
 30
0.0
 11
42.0702
 21
33.711
 31
0.0
  0
LINE
  8
0
 62
     0
 10
42.0702
 20
33.711
 30
0.0
 11
42.8696
 21
33.711
 31
0.0
  0
LINE
  8
0
 62
     0
 10
42.8696
 20
33.711
 30
0.0
 11
42.8696
 21
27.762
 31
0.0
  0
LINE
  8
0
 62
     0
 10
42.8696
 20
27.762
 30
0.0
 11
42.0702
 21
27.762
 31
0.0
  0
LINE
  8
0
 62
     0
 10
42.0702
 20
27.762
 30
0.0
 11
42.0702
 21
24.8116
 31
0.0
  0
LINE
  8
0
 62
     0
 10
42.0702
 20
24.8116
 30
0.0
 11
42.8696
 21
24.8116
 31
0.0
  0
LINE
  8
0
 62
     0
 10
42.8696
 20
24.8116
 30
0.0
 11
42.8696
 21
23.8111
 31
0.0
  0
LINE
  8
0
 62
     0
 10
42.8696
 20
23.8111
 30
0.0
 11
56.72
 21
23.8111
 31
0.0
  0
LINE
  8
0
 62
     0
 10
56.72
 20
23.8111
 30
0.0
 11
56.72
 21
24.8116
 31
0.0
  0
LINE
  8
0
 62
     0
 10
56.72
 20
24.8116
 30
0.0
 11
57.5194
 21
24.8116
 31
0.0
  0
LINE
  8
0
 62
     0
 10
57.5194
 20
24.8116
 30
0.0
 11
57.5194
 21
27.762
 31
0.0
  0
LINE
  8
0
 62
     0
 10
57.5194
 20
27.762
 30
0.0
 11
56.72
 21
27.762
 31
0.0
  0
LINE
  8
0
 62
     0
 10
56.72
 20
27.762
 30
0.0
 11
56.72
 21
33.711
 31
0.0
  0
LINE
  8
0
 62
     0
 10
56.72
 20
33.711
 30
0.0
 11
57.5194
 21
33.711
 31
0.0
  0
LINE
  8
0
 62
     0
 10
57.5194
 20
33.711
 30
0.0
 11
57.5194
 21
36.6614
 31
0.0
  0
LINE
  8
0
 62
     0
 10
57.5194
 20
36.6614
 30
0.0
 11
56.72
 21
36.6614
 31
0.0
  0
LINE
  8
0
 62
     0
 10
56.72
 20
36.6614
 30
0.0
 11
56.72
 21
37.6619
 31
0.0
  0
LINE
  8
0
 62
     0
 10
56.72
 20
37.6619
 30
0.0
 11
42.8696
 21
37.6619
 31
0.0
  0
LINE
  8
0
 62
     0
 10
40.0734
 20
42.7535
 30
0.0
 11
39.8791
 21
42.7302
 31
0.0
  0
LINE
  8
0
 62
     0
 10
39.8791
 20
42.7302
 30
0.0
 11
39.6861
 21
42.6932
 31
0.0
  0
LINE
  8
0
 62
     0
 10
39.6861
 20
42.6932
 30
0.0
 11
39.4974
 21
42.6392
 31
0.0
  0
LINE
  8
0
 62
     0
 10
39.4974
 20
42.6392
 30
0.0
 11
39.3129
 21
42.5718
 31
0.0
  0
LINE
  8
0
 62
     0
 10
39.3129
 20
42.5718
 30
0.0
 11
39.135
 21
42.4889
 31
0.0
  0
LINE
  8
0
 62
     0
 10
39.135
 20
42.4889
 30
0.0
 11
38.964
 21
42.394
 31
0.0
  0
LINE
  8
0
 62
     0
 10
38.964
 20
42.394
 30
0.0
 11
38.8013
 21
42.285
 31
0.0
  0
LINE
  8
0
 62
     0
 10
38.8013
 20
42.285
 30
0.0
 11
38.6457
 21
42.1626
 31
0.0
  0
LINE
  8
0
 62
     0
 10
38.6457
 20
42.1626
 30
0.0
 11
38.5025
 21
42.0289
 31
0.0
  0
LINE
  8
0
 62
     0
 10
38.5025
 20
42.0289
 30
0.0
 11
38.3688
 21
41.8853
 31
0.0
  0
LINE
  8
0
 62
     0
 10
38.3688
 20
41.8853
 30
0.0
 11
38.2461
 21
41.7297
 31
0.0
  0
LINE
  8
0
 62
     0
 10
38.2461
 20
41.7297
 30
0.0
 11
38.137
 21
41.5671
 31
0.0
  0
LINE
  8
0
 62
     0
 10
38.137
 20
41.5671
 30
0.0
 11
38.0421
 21
41.3964
 31
0.0
  0
LINE
  8
0
 62
     0
 10
38.0421
 20
41.3964
 30
0.0
 11
37.9596
 21
41.2186
 31
0.0
  0
LINE
  8
0
 62
     0
 10
37.9596
 20
41.2186
 30
0.0
 11
37.8919
 21
41.0337
 31
0.0
  0
LINE
  8
0
 62
     0
 10
37.8919
 20
41.0337
 30
0.0
 11
37.8382
 21
40.845
 31
0.0
  0
LINE
  8
0
 62
     0
 10
37.8382
 20
40.845
 30
0.0
 11
37.8008
 21
40.652
 31
0.0
  0
LINE
  8
0
 62
     0
 10
37.8008
 20
40.652
 30
0.0
 11
37.7776
 21
40.458
 31
0.0
  0
LINE
  8
0
 62
     0
 10
37.7776
 20
40.458
 30
0.0
 11
37.7694
 21
40.2608
 31
0.0
  0
LINE
  8
0
 62
     0
 10
37.7694
 20
40.2608
 30
0.0
 11
37.7776
 21
40.065
 31
0.0
  0
LINE
  8
0
 62
     0
 10
37.7776
 20
40.065
 30
0.0
 11
37.8008
 21
39.8709
 31
0.0
  0
LINE
  8
0
 62
     0
 10
37.8008
 20
39.8709
 30
0.0
 11
37.8382
 21
39.678
 31
0.0
  0
LINE
  8
0
 62
     0
 10
37.8382
 20
39.678
 30
0.0
 11
37.8919
 21
39.4892
 31
0.0
  0
LINE
  8
0
 62
     0
 10
37.8919
 20
39.4892
 30
0.0
 11
37.9596
 21
39.3044
 31
0.0
  0
LINE
  8
0
 62
     0
 10
37.9596
 20
39.3044
 30
0.0
 11
38.0421
 21
39.1266
 31
0.0
  0
LINE
  8
0
 62
     0
 10
38.0421
 20
39.1266
 30
0.0
 11
38.137
 21
38.9558
 31
0.0
  0
LINE
  8
0
 62
     0
 10
38.137
 20
38.9558
 30
0.0
 11
38.2461
 21
38.7918
 31
0.0
  0
LINE
  8
0
 62
     0
 10
38.2461
 20
38.7918
 30
0.0
 11
38.3688
 21
38.6373
 31
0.0
  0
LINE
  8
0
 62
     0
 10
38.3688
 20
38.6373
 30
0.0
 11
38.5025
 21
38.4926
 31
0.0
  0
LINE
  8
0
 62
     0
 10
38.5025
 20
38.4926
 30
0.0
 11
38.6457
 21
38.3603
 31
0.0
  0
LINE
  8
0
 62
     0
 10
38.6457
 20
38.3603
 30
0.0
 11
38.8013
 21
38.2379
 31
0.0
  0
LINE
  8
0
 62
     0
 10
38.8013
 20
38.2379
 30
0.0
 11
38.964
 21
38.1289
 31
0.0
  0
LINE
  8
0
 62
     0
 10
38.964
 20
38.1289
 30
0.0
 11
39.135
 21
38.034
 31
0.0
  0
LINE
  8
0
 62
     0
 10
39.135
 20
38.034
 30
0.0
 11
39.3129
 21
37.9511
 31
0.0
  0
LINE
  8
0
 62
     0
 10
39.3129
 20
37.9511
 30
0.0
 11
39.4974
 21
37.8837
 31
0.0
  0
LINE
  8
0
 62
     0
 10
39.4974
 20
37.8837
 30
0.0
 11
39.6861
 21
37.8298
 31
0.0
  0
LINE
  8
0
 62
     0
 10
39.6861
 20
37.8298
 30
0.0
 11
39.8791
 21
37.7927
 31
0.0
  0
LINE
  8
0
 62
     0
 10
39.8791
 20
37.7927
 30
0.0
 11
40.0734
 21
37.7694
 31
0.0
  0
LINE
  8
0
 62
     0
 10
40.0734
 20
37.7694
 30
0.0
 11
40.2703
 21
37.761
 31
0.0
  0
LINE
  8
0
 62
     0
 10
40.2703
 20
37.761
 30
0.0
 11
40.4661
 21
37.7694
 31
0.0
  0
LINE
  8
0
 62
     0
 10
40.4661
 20
37.7694
 30
0.0
 11
40.6605
 21
37.7927
 31
0.0
  0
LINE
  8
0
 62
     0
 10
40.6605
 20
37.7927
 30
0.0
 11
40.8534
 21
37.8298
 31
0.0
  0
LINE
  8
0
 62
     0
 10
40.8534
 20
37.8298
 30
0.0
 11
41.0422
 21
37.8837
 31
0.0
  0
LINE
  8
0
 62
     0
 10
41.0422
 20
37.8837
 30
0.0
 11
41.2267
 21
37.9511
 31
0.0
  0
LINE
  8
0
 62
     0
 10
41.2267
 20
37.9511
 30
0.0
 11
41.4045
 21
38.034
 31
0.0
  0
LINE
  8
0
 62
     0
 10
41.4045
 20
38.034
 30
0.0
 11
41.5756
 21
38.1289
 31
0.0
  0
LINE
  8
0
 62
     0
 10
41.5756
 20
38.1289
 30
0.0
 11
41.7393
 21
38.2379
 31
0.0
  0
LINE
  8
0
 62
     0
 10
41.7393
 20
38.2379
 30
0.0
 11
41.8938
 21
38.3603
 31
0.0
  0
LINE
  8
0
 62
     0
 10
41.8938
 20
38.3603
 30
0.0
 11
42.0384
 21
38.4926
 31
0.0
  0
LINE
  8
0
 62
     0
 10
42.0384
 20
38.4926
 30
0.0
 11
42.1707
 21
38.6373
 31
0.0
  0
LINE
  8
0
 62
     0
 10
42.1707
 20
38.6373
 30
0.0
 11
42.2935
 21
38.7918
 31
0.0
  0
LINE
  8
0
 62
     0
 10
42.2935
 20
38.7918
 30
0.0
 11
42.4021
 21
38.9558
 31
0.0
  0
LINE
  8
0
 62
     0
 10
42.4021
 20
38.9558
 30
0.0
 11
42.4974
 21
39.1266
 31
0.0
  0
LINE
  8
0
 62
     0
 10
42.4974
 20
39.1266
 30
0.0
 11
42.5799
 21
39.3044
 31
0.0
  0
LINE
  8
0
 62
     0
 10
42.5799
 20
39.3044
 30
0.0
 11
42.6477
 21
39.4892
 31
0.0
  0
LINE
  8
0
 62
     0
 10
42.6477
 20
39.4892
 30
0.0
 11
42.7013
 21
39.678
 31
0.0
  0
LINE
  8
0
 62
     0
 10
42.7013
 20
39.678
 30
0.0
 11
42.7383
 21
39.8709
 31
0.0
  0
LINE
  8
0
 62
     0
 10
42.7383
 20
39.8709
 30
0.0
 11
42.762
 21
40.065
 31
0.0
  0
LINE
  8
0
 62
     0
 10
42.762
 20
40.065
 30
0.0
 11
42.7701
 21
40.2608
 31
0.0
  0
LINE
  8
0
 62
     0
 10
42.7701
 20
40.2608
 30
0.0
 11
42.762
 21
40.458
 31
0.0
  0
LINE
  8
0
 62
     0
 10
42.762
 20
40.458
 30
0.0
 11
42.7383
 21
40.652
 31
0.0
  0
LINE
  8
0
 62
     0
 10
42.7383
 20
40.652
 30
0.0
 11
42.7013
 21
40.845
 31
0.0
  0
LINE
  8
0
 62
     0
 10
42.7013
 20
40.845
 30
0.0
 11
42.6477
 21
41.0337
 31
0.0
  0
LINE
  8
0
 62
     0
 10
42.6477
 20
41.0337
 30
0.0
 11
42.5799
 21
41.2186
 31
0.0
  0
LINE
  8
0
 62
     0
 10
42.5799
 20
41.2186
 30
0.0
 11
42.4974
 21
41.3964
 31
0.0
  0
LINE
  8
0
 62
     0
 10
42.4974
 20
41.3964
 30
0.0
 11
42.4021
 21
41.5671
 31
0.0
  0
LINE
  8
0
 62
     0
 10
42.4021
 20
41.5671
 30
0.0
 11
42.2935
 21
41.7297
 31
0.0
  0
LINE
  8
0
 62
     0
 10
42.2935
 20
41.7297
 30
0.0
 11
42.1707
 21
41.8853
 31
0.0
  0
LINE
  8
0
 62
     0
 10
42.1707
 20
41.8853
 30
0.0
 11
42.0384
 21
42.0289
 31
0.0
  0
LINE
  8
0
 62
     0
 10
42.0384
 20
42.0289
 30
0.0
 11
41.8938
 21
42.1626
 31
0.0
  0
LINE
  8
0
 62
     0
 10
41.8938
 20
42.1626
 30
0.0
 11
41.7393
 21
42.285
 31
0.0
  0
LINE
  8
0
 62
     0
 10
41.7393
 20
42.285
 30
0.0
 11
41.5756
 21
42.394
 31
0.0
  0
LINE
  8
0
 62
     0
 10
41.5756
 20
42.394
 30
0.0
 11
41.4045
 21
42.4889
 31
0.0
  0
LINE
  8
0
 62
     0
 10
41.4045
 20
42.4889
 30
0.0
 11
41.2267
 21
42.5718
 31
0.0
  0
LINE
  8
0
 62
     0
 10
41.2267
 20
42.5718
 30
0.0
 11
41.0422
 21
42.6392
 31
0.0
  0
LINE
  8
0
 62
     0
 10
41.0422
 20
42.6392
 30
0.0
 11
40.8534
 21
42.6932
 31
0.0
  0
LINE
  8
0
 62
     0
 10
40.8534
 20
42.6932
 30
0.0
 11
40.6605
 21
42.7302
 31
0.0
  0
LINE
  8
0
 62
     0
 10
40.6605
 20
42.7302
 30
0.0
 11
40.4661
 21
42.7535
 31
0.0
  0
LINE
  8
0
 62
     0
 10
40.4661
 20
42.7535
 30
0.0
 11
40.2703
 21
42.762
 31
0.0
  0
LINE
  8
0
 62
     0
 10
40.2703
 20
42.762
 30
0.0
 11
40.0734
 21
42.7535
 31
0.0
  0
LINE
  8
0
 62
     0
 10
4.76938
 20
56.7118
 30
0.0
 11
4.76938
 21
55.7114
 31
0.0
  0
LINE
  8
0
 62
     0
 10
4.76938
 20
55.7114
 30
0.0
 11
3.97013
 21
55.7114
 31
0.0
  0
LINE
  8
0
 62
     0
 10
3.97013
 20
55.7114
 30
0.0
 11
3.97013
 21
52.7625
 31
0.0
  0
LINE
  8
0
 62
     0
 10
3.97013
 20
52.7625
 30
0.0
 11
4.76938
 21
52.7625
 31
0.0
  0
LINE
  8
0
 62
     0
 10
4.76938
 20
52.7625
 30
0.0
 11
4.76938
 21
46.8118
 31
0.0
  0
LINE
  8
0
 62
     0
 10
4.76938
 20
46.8118
 30
0.0
 11
3.97013
 21
46.8118
 31
0.0
  0
LINE
  8
0
 62
     0
 10
3.97013
 20
46.8118
 30
0.0
 11
3.97013
 21
43.8616
 31
0.0
  0
LINE
  8
0
 62
     0
 10
3.97013
 20
43.8616
 30
0.0
 11
4.76938
 21
43.8616
 31
0.0
  0
LINE
  8
0
 62
     0
 10
4.76938
 20
43.8616
 30
0.0
 11
4.76938
 21
42.8611
 31
0.0
  0
LINE
  8
0
 62
     0
 10
4.76938
 20
42.8611
 30
0.0
 11
18.6201
 21
42.8611
 31
0.0
  0
LINE
  8
0
 62
     0
 10
18.6201
 20
42.8611
 30
0.0
 11
18.6201
 21
43.8616
 31
0.0
  0
LINE
  8
0
 62
     0
 10
18.6201
 20
43.8616
 30
0.0
 11
19.4193
 21
43.8616
 31
0.0
  0
LINE
  8
0
 62
     0
 10
19.4193
 20
43.8616
 30
0.0
 11
19.4193
 21
46.8118
 31
0.0
  0
LINE
  8
0
 62
     0
 10
19.4193
 20
46.8118
 30
0.0
 11
18.6201
 21
46.8118
 31
0.0
  0
LINE
  8
0
 62
     0
 10
18.6201
 20
46.8118
 30
0.0
 11
18.6201
 21
52.7625
 31
0.0
  0
LINE
  8
0
 62
     0
 10
18.6201
 20
52.7625
 30
0.0
 11
19.4193
 21
52.7625
 31
0.0
  0
LINE
  8
0
 62
     0
 10
19.4193
 20
52.7625
 30
0.0
 11
19.4193
 21
55.7114
 31
0.0
  0
LINE
  8
0
 62
     0
 10
19.4193
 20
55.7114
 30
0.0
 11
18.6201
 21
55.7114
 31
0.0
  0
LINE
  8
0
 62
     0
 10
18.6201
 20
55.7114
 30
0.0
 11
18.6201
 21
56.7118
 31
0.0
  0
LINE
  8
0
 62
     0
 10
18.6201
 20
56.7118
 30
0.0
 11
4.76938
 21
56.7118
 31
0.0
  0
LINE
  8
0
 62
     0
 10
23.8194
 20
56.7118
 30
0.0
 11
23.8194
 21
55.7114
 31
0.0
  0
LINE
  8
0
 62
     0
 10
23.8194
 20
55.7114
 30
0.0
 11
23.0201
 21
55.7114
 31
0.0
  0
LINE
  8
0
 62
     0
 10
23.0201
 20
55.7114
 30
0.0
 11
23.0201
 21
52.7625
 31
0.0
  0
LINE
  8
0
 62
     0
 10
23.0201
 20
52.7625
 30
0.0
 11
23.8194
 21
52.7625
 31
0.0
  0
LINE
  8
0
 62
     0
 10
23.8194
 20
52.7625
 30
0.0
 11
23.8194
 21
46.8118
 31
0.0
  0
LINE
  8
0
 62
     0
 10
23.8194
 20
46.8118
 30
0.0
 11
23.0201
 21
46.8118
 31
0.0
  0
LINE
  8
0
 62
     0
 10
23.0201
 20
46.8118
 30
0.0
 11
23.0201
 21
43.8616
 31
0.0
  0
LINE
  8
0
 62
     0
 10
23.0201
 20
43.8616
 30
0.0
 11
23.8194
 21
43.8616
 31
0.0
  0
LINE
  8
0
 62
     0
 10
23.8194
 20
43.8616
 30
0.0
 11
23.8194
 21
42.8611
 31
0.0
  0
LINE
  8
0
 62
     0
 10
23.8194
 20
42.8611
 30
0.0
 11
37.67
 21
42.8611
 31
0.0
  0
LINE
  8
0
 62
     0
 10
37.67
 20
42.8611
 30
0.0
 11
37.67
 21
43.8616
 31
0.0
  0
LINE
  8
0
 62
     0
 10
37.67
 20
43.8616
 30
0.0
 11
38.4694
 21
43.8616
 31
0.0
  0
LINE
  8
0
 62
     0
 10
38.4694
 20
43.8616
 30
0.0
 11
38.4694
 21
46.8118
 31
0.0
  0
LINE
  8
0
 62
     0
 10
38.4694
 20
46.8118
 30
0.0
 11
37.67
 21
46.8118
 31
0.0
  0
LINE
  8
0
 62
     0
 10
37.67
 20
46.8118
 30
0.0
 11
37.67
 21
52.7625
 31
0.0
  0
LINE
  8
0
 62
     0
 10
37.67
 20
52.7625
 30
0.0
 11
38.4694
 21
52.7625
 31
0.0
  0
LINE
  8
0
 62
     0
 10
38.4694
 20
52.7625
 30
0.0
 11
38.4694
 21
55.7114
 31
0.0
  0
LINE
  8
0
 62
     0
 10
38.4694
 20
55.7114
 30
0.0
 11
37.67
 21
55.7114
 31
0.0
  0
LINE
  8
0
 62
     0
 10
37.67
 20
55.7114
 30
0.0
 11
37.67
 21
56.7118
 31
0.0
  0
LINE
  8
0
 62
     0
 10
37.67
 20
56.7118
 30
0.0
 11
23.8194
 21
56.7118
 31
0.0
  0
LINE
  8
0
 62
     0
 10
42.8696
 20
56.7118
 30
0.0
 11
42.8696
 21
55.7114
 31
0.0
  0
LINE
  8
0
 62
     0
 10
42.8696
 20
55.7114
 30
0.0
 11
42.0702
 21
55.7114
 31
0.0
  0
LINE
  8
0
 62
     0
 10
42.0702
 20
55.7114
 30
0.0
 11
42.0702
 21
52.7625
 31
0.0
  0
LINE
  8
0
 62
     0
 10
42.0702
 20
52.7625
 30
0.0
 11
42.8696
 21
52.7625
 31
0.0
  0
LINE
  8
0
 62
     0
 10
42.8696
 20
52.7625
 30
0.0
 11
42.8696
 21
46.8118
 31
0.0
  0
LINE
  8
0
 62
     0
 10
42.8696
 20
46.8118
 30
0.0
 11
42.0702
 21
46.8118
 31
0.0
  0
LINE
  8
0
 62
     0
 10
42.0702
 20
46.8118
 30
0.0
 11
42.0702
 21
43.8616
 31
0.0
  0
LINE
  8
0
 62
     0
 10
42.0702
 20
43.8616
 30
0.0
 11
42.8696
 21
43.8616
 31
0.0
  0
LINE
  8
0
 62
     0
 10
42.8696
 20
43.8616
 30
0.0
 11
42.8696
 21
42.8611
 31
0.0
  0
LINE
  8
0
 62
     0
 10
42.8696
 20
42.8611
 30
0.0
 11
56.72
 21
42.8611
 31
0.0
  0
LINE
  8
0
 62
     0
 10
56.72
 20
42.8611
 30
0.0
 11
56.72
 21
43.8616
 31
0.0
  0
LINE
  8
0
 62
     0
 10
56.72
 20
43.8616
 30
0.0
 11
57.5194
 21
43.8616
 31
0.0
  0
LINE
  8
0
 62
     0
 10
57.5194
 20
43.8616
 30
0.0
 11
57.5194
 21
46.8118
 31
0.0
  0
LINE
  8
0
 62
     0
 10
57.5194
 20
46.8118
 30
0.0
 11
56.72
 21
46.8118
 31
0.0
  0
LINE
  8
0
 62
     0
 10
56.72
 20
46.8118
 30
0.0
 11
56.72
 21
52.7625
 31
0.0
  0
LINE
  8
0
 62
     0
 10
56.72
 20
52.7625
 30
0.0
 11
57.5194
 21
52.7625
 31
0.0
  0
LINE
  8
0
 62
     0
 10
57.5194
 20
52.7625
 30
0.0
 11
57.5194
 21
55.7114
 31
0.0
  0
LINE
  8
0
 62
     0
 10
57.5194
 20
55.7114
 30
0.0
 11
56.72
 21
55.7114
 31
0.0
  0
LINE
  8
0
 62
     0
 10
56.72
 20
55.7114
 30
0.0
 11
56.72
 21
56.7118
 31
0.0
  0
LINE
  8
0
 62
     0
 10
56.72
 20
56.7118
 30
0.0
 11
42.8696
 21
56.7118
 31
0.0
  0
LINE
  8
0
 62
     0
 10
61.9196
 20
56.7118
 30
0.0
 11
61.9196
 21
55.7114
 31
0.0
  0
LINE
  8
0
 62
     0
 10
61.9196
 20
55.7114
 30
0.0
 11
61.1202
 21
55.7114
 31
0.0
  0
LINE
  8
0
 62
     0
 10
61.1202
 20
55.7114
 30
0.0
 11
61.1202
 21
52.7625
 31
0.0
  0
LINE
  8
0
 62
     0
 10
61.1202
 20
52.7625
 30
0.0
 11
61.9196
 21
52.7625
 31
0.0
  0
LINE
  8
0
 62
     0
 10
61.9196
 20
52.7625
 30
0.0
 11
61.9196
 21
46.8118
 31
0.0
  0
LINE
  8
0
 62
     0
 10
61.9196
 20
46.8118
 30
0.0
 11
61.1202
 21
46.8118
 31
0.0
  0
LINE
  8
0
 62
     0
 10
61.1202
 20
46.8118
 30
0.0
 11
61.1202
 21
43.8616
 31
0.0
  0
LINE
  8
0
 62
     0
 10
61.1202
 20
43.8616
 30
0.0
 11
61.9196
 21
43.8616
 31
0.0
  0
LINE
  8
0
 62
     0
 10
61.9196
 20
43.8616
 30
0.0
 11
61.9196
 21
42.8611
 31
0.0
  0
LINE
  8
0
 62
     0
 10
61.9196
 20
42.8611
 30
0.0
 11
75.77
 21
42.8611
 31
0.0
  0
LINE
  8
0
 62
     0
 10
75.77
 20
42.8611
 30
0.0
 11
75.77
 21
43.8616
 31
0.0
  0
LINE
  8
0
 62
     0
 10
75.77
 20
43.8616
 30
0.0
 11
76.5694
 21
43.8616
 31
0.0
  0
LINE
  8
0
 62
     0
 10
76.5694
 20
43.8616
 30
0.0
 11
76.5694
 21
46.8118
 31
0.0
  0
LINE
  8
0
 62
     0
 10
76.5694
 20
46.8118
 30
0.0
 11
75.77
 21
46.8118
 31
0.0
  0
LINE
  8
0
 62
     0
 10
75.77
 20
46.8118
 30
0.0
 11
75.77
 21
52.7625
 31
0.0
  0
LINE
  8
0
 62
     0
 10
75.77
 20
52.7625
 30
0.0
 11
76.5694
 21
52.7625
 31
0.0
  0
LINE
  8
0
 62
     0
 10
76.5694
 20
52.7625
 30
0.0
 11
76.5694
 21
55.7114
 31
0.0
  0
LINE
  8
0
 62
     0
 10
76.5694
 20
55.7114
 30
0.0
 11
75.77
 21
55.7114
 31
0.0
  0
LINE
  8
0
 62
     0
 10
75.77
 20
55.7114
 30
0.0
 11
75.77
 21
56.7118
 31
0.0
  0
LINE
  8
0
 62
     0
 10
75.77
 20
56.7118
 30
0.0
 11
61.9196
 21
56.7118
 31
0.0
  0
LINE
  8
0
 62
     0
 10
4.76938
 20
75.7618
 30
0.0
 11
4.76938
 21
74.7614
 31
0.0
  0
LINE
  8
0
 62
     0
 10
4.76938
 20
74.7614
 30
0.0
 11
3.97013
 21
74.7614
 31
0.0
  0
LINE
  8
0
 62
     0
 10
3.97013
 20
74.7614
 30
0.0
 11
3.97013
 21
71.8111
 31
0.0
  0
LINE
  8
0
 62
     0
 10
3.97013
 20
71.8111
 30
0.0
 11
4.76938
 21
71.8111
 31
0.0
  0
LINE
  8
0
 62
     0
 10
4.76938
 20
71.8111
 30
0.0
 11
4.76938
 21
65.8619
 31
0.0
  0
LINE
  8
0
 62
     0
 10
4.76938
 20
65.8619
 30
0.0
 11
3.97013
 21
65.8619
 31
0.0
  0
LINE
  8
0
 62
     0
 10
3.97013
 20
65.8619
 30
0.0
 11
3.97013
 21
62.9116
 31
0.0
  0
LINE
  8
0
 62
     0
 10
3.97013
 20
62.9116
 30
0.0
 11
4.76938
 21
62.9116
 31
0.0
  0
LINE
  8
0
 62
     0
 10
4.76938
 20
62.9116
 30
0.0
 11
4.76938
 21
61.9111
 31
0.0
  0
LINE
  8
0
 62
     0
 10
4.76938
 20
61.9111
 30
0.0
 11
18.6201
 21
61.9111
 31
0.0
  0
LINE
  8
0
 62
     0
 10
18.6201
 20
61.9111
 30
0.0
 11
18.6201
 21
62.9116
 31
0.0
  0
LINE
  8
0
 62
     0
 10
18.6201
 20
62.9116
 30
0.0
 11
19.4193
 21
62.9116
 31
0.0
  0
LINE
  8
0
 62
     0
 10
19.4193
 20
62.9116
 30
0.0
 11
19.4193
 21
65.8619
 31
0.0
  0
LINE
  8
0
 62
     0
 10
19.4193
 20
65.8619
 30
0.0
 11
18.6201
 21
65.8619
 31
0.0
  0
LINE
  8
0
 62
     0
 10
18.6201
 20
65.8619
 30
0.0
 11
18.6201
 21
71.8111
 31
0.0
  0
LINE
  8
0
 62
     0
 10
18.6201
 20
71.8111
 30
0.0
 11
19.4193
 21
71.8111
 31
0.0
  0
LINE
  8
0
 62
     0
 10
19.4193
 20
71.8111
 30
0.0
 11
19.4193
 21
74.7614
 31
0.0
  0
LINE
  8
0
 62
     0
 10
19.4193
 20
74.7614
 30
0.0
 11
18.6201
 21
74.7614
 31
0.0
  0
LINE
  8
0
 62
     0
 10
18.6201
 20
74.7614
 30
0.0
 11
18.6201
 21
75.7618
 31
0.0
  0
LINE
  8
0
 62
     0
 10
18.6201
 20
75.7618
 30
0.0
 11
4.76938
 21
75.7618
 31
0.0
  0
LINE
  8
0
 62
     0
 10
23.8194
 20
75.7618
 30
0.0
 11
23.8194
 21
74.7614
 31
0.0
  0
LINE
  8
0
 62
     0
 10
23.8194
 20
74.7614
 30
0.0
 11
23.0201
 21
74.7614
 31
0.0
  0
LINE
  8
0
 62
     0
 10
23.0201
 20
74.7614
 30
0.0
 11
23.0201
 21
71.8111
 31
0.0
  0
LINE
  8
0
 62
     0
 10
23.0201
 20
71.8111
 30
0.0
 11
23.8194
 21
71.8111
 31
0.0
  0
LINE
  8
0
 62
     0
 10
23.8194
 20
71.8111
 30
0.0
 11
23.8194
 21
65.8619
 31
0.0
  0
LINE
  8
0
 62
     0
 10
23.8194
 20
65.8619
 30
0.0
 11
23.0201
 21
65.8619
 31
0.0
  0
LINE
  8
0
 62
     0
 10
23.0201
 20
65.8619
 30
0.0
 11
23.0201
 21
62.9116
 31
0.0
  0
LINE
  8
0
 62
     0
 10
23.0201
 20
62.9116
 30
0.0
 11
23.8194
 21
62.9116
 31
0.0
  0
LINE
  8
0
 62
     0
 10
23.8194
 20
62.9116
 30
0.0
 11
23.8194
 21
61.9111
 31
0.0
  0
LINE
  8
0
 62
     0
 10
23.8194
 20
61.9111
 30
0.0
 11
37.67
 21
61.9111
 31
0.0
  0
LINE
  8
0
 62
     0
 10
37.67
 20
61.9111
 30
0.0
 11
37.67
 21
62.9116
 31
0.0
  0
LINE
  8
0
 62
     0
 10
37.67
 20
62.9116
 30
0.0
 11
38.4694
 21
62.9116
 31
0.0
  0
LINE
  8
0
 62
     0
 10
38.4694
 20
62.9116
 30
0.0
 11
38.4694
 21
65.8619
 31
0.0
  0
LINE
  8
0
 62
     0
 10
38.4694
 20
65.8619
 30
0.0
 11
37.67
 21
65.8619
 31
0.0
  0
LINE
  8
0
 62
     0
 10
37.67
 20
65.8619
 30
0.0
 11
37.67
 21
71.8111
 31
0.0
  0
LINE
  8
0
 62
     0
 10
37.67
 20
71.8111
 30
0.0
 11
38.4694
 21
71.8111
 31
0.0
  0
LINE
  8
0
 62
     0
 10
38.4694
 20
71.8111
 30
0.0
 11
38.4694
 21
74.7614
 31
0.0
  0
LINE
  8
0
 62
     0
 10
38.4694
 20
74.7614
 30
0.0
 11
37.67
 21
74.7614
 31
0.0
  0
LINE
  8
0
 62
     0
 10
37.67
 20
74.7614
 30
0.0
 11
37.67
 21
75.7618
 31
0.0
  0
LINE
  8
0
 62
     0
 10
37.67
 20
75.7618
 30
0.0
 11
23.8194
 21
75.7618
 31
0.0
  0
LINE
  8
0
 62
     0
 10
42.8696
 20
75.7618
 30
0.0
 11
42.8696
 21
74.7614
 31
0.0
  0
LINE
  8
0
 62
     0
 10
42.8696
 20
74.7614
 30
0.0
 11
42.0702
 21
74.7614
 31
0.0
  0
LINE
  8
0
 62
     0
 10
42.0702
 20
74.7614
 30
0.0
 11
42.0702
 21
71.8111
 31
0.0
  0
LINE
  8
0
 62
     0
 10
42.0702
 20
71.8111
 30
0.0
 11
42.8696
 21
71.8111
 31
0.0
  0
LINE
  8
0
 62
     0
 10
42.8696
 20
71.8111
 30
0.0
 11
42.8696
 21
65.8619
 31
0.0
  0
LINE
  8
0
 62
     0
 10
42.8696
 20
65.8619
 30
0.0
 11
42.0702
 21
65.8619
 31
0.0
  0
LINE
  8
0
 62
     0
 10
42.0702
 20
65.8619
 30
0.0
 11
42.0702
 21
62.9116
 31
0.0
  0
LINE
  8
0
 62
     0
 10
42.0702
 20
62.9116
 30
0.0
 11
42.8696
 21
62.9116
 31
0.0
  0
LINE
  8
0
 62
     0
 10
42.8696
 20
62.9116
 30
0.0
 11
42.8696
 21
61.9111
 31
0.0
  0
LINE
  8
0
 62
     0
 10
42.8696
 20
61.9111
 30
0.0
 11
56.72
 21
61.9111
 31
0.0
  0
LINE
  8
0
 62
     0
 10
56.72
 20
61.9111
 30
0.0
 11
56.72
 21
62.9116
 31
0.0
  0
LINE
  8
0
 62
     0
 10
56.72
 20
62.9116
 30
0.0
 11
57.5194
 21
62.9116
 31
0.0
  0
LINE
  8
0
 62
     0
 10
57.5194
 20
62.9116
 30
0.0
 11
57.5194
 21
65.8619
 31
0.0
  0
LINE
  8
0
 62
     0
 10
57.5194
 20
65.8619
 30
0.0
 11
56.72
 21
65.8619
 31
0.0
  0
LINE
  8
0
 62
     0
 10
56.72
 20
65.8619
 30
0.0
 11
56.72
 21
71.8111
 31
0.0
  0
LINE
  8
0
 62
     0
 10
56.72
 20
71.8111
 30
0.0
 11
57.5194
 21
71.8111
 31
0.0
  0
LINE
  8
0
 62
     0
 10
57.5194
 20
71.8111
 30
0.0
 11
57.5194
 21
74.7614
 31
0.0
  0
LINE
  8
0
 62
     0
 10
57.5194
 20
74.7614
 30
0.0
 11
56.72
 21
74.7614
 31
0.0
  0
LINE
  8
0
 62
     0
 10
56.72
 20
74.7614
 30
0.0
 11
56.72
 21
75.7618
 31
0.0
  0
LINE
  8
0
 62
     0
 10
56.72
 20
75.7618
 30
0.0
 11
42.8696
 21
75.7618
 31
0.0
  0
LINE
  8
0
 62
     0
 10
61.9196
 20
75.7618
 30
0.0
 11
61.9196
 21
74.7614
 31
0.0
  0
LINE
  8
0
 62
     0
 10
61.9196
 20
74.7614
 30
0.0
 11
61.1202
 21
74.7614
 31
0.0
  0
LINE
  8
0
 62
     0
 10
61.1202
 20
74.7614
 30
0.0
 11
61.1202
 21
71.8111
 31
0.0
  0
LINE
  8
0
 62
     0
 10
61.1202
 20
71.8111
 30
0.0
 11
61.9196
 21
71.8111
 31
0.0
  0
LINE
  8
0
 62
     0
 10
61.9196
 20
71.8111
 30
0.0
 11
61.9196
 21
65.8619
 31
0.0
  0
LINE
  8
0
 62
     0
 10
61.9196
 20
65.8619
 30
0.0
 11
61.1202
 21
65.8619
 31
0.0
  0
LINE
  8
0
 62
     0
 10
61.1202
 20
65.8619
 30
0.0
 11
61.1202
 21
62.9116
 31
0.0
  0
LINE
  8
0
 62
     0
 10
61.1202
 20
62.9116
 30
0.0
 11
61.9196
 21
62.9116
 31
0.0
  0
LINE
  8
0
 62
     0
 10
61.9196
 20
62.9116
 30
0.0
 11
61.9196
 21
61.9111
 31
0.0
  0
LINE
  8
0
 62
     0
 10
61.9196
 20
61.9111
 30
0.0
 11
75.77
 21
61.9111
 31
0.0
  0
LINE
  8
0
 62
     0
 10
75.77
 20
61.9111
 30
0.0
 11
75.77
 21
62.9116
 31
0.0
  0
LINE
  8
0
 62
     0
 10
75.77
 20
62.9116
 30
0.0
 11
76.5694
 21
62.9116
 31
0.0
  0
LINE
  8
0
 62
     0
 10
76.5694
 20
62.9116
 30
0.0
 11
76.5694
 21
65.8619
 31
0.0
  0
LINE
  8
0
 62
     0
 10
76.5694
 20
65.8619
 30
0.0
 11
75.77
 21
65.8619
 31
0.0
  0
LINE
  8
0
 62
     0
 10
75.77
 20
65.8619
 30
0.0
 11
75.77
 21
71.8111
 31
0.0
  0
LINE
  8
0
 62
     0
 10
75.77
 20
71.8111
 30
0.0
 11
76.5694
 21
71.8111
 31
0.0
  0
LINE
  8
0
 62
     0
 10
76.5694
 20
71.8111
 30
0.0
 11
76.5694
 21
74.7614
 31
0.0
  0
LINE
  8
0
 62
     0
 10
76.5694
 20
74.7614
 30
0.0
 11
75.77
 21
74.7614
 31
0.0
  0
LINE
  8
0
 62
     0
 10
75.77
 20
74.7614
 30
0.0
 11
75.77
 21
75.7618
 31
0.0
  0
LINE
  8
0
 62
     0
 10
75.77
 20
75.7618
 30
0.0
 11
61.9196
 21
75.7618
 31
0.0
  0
ENDSEC
  0
EOF
